<?xml version="1.0" encoding="UTF-8"?>
<svg version="1.1" xmlns="http://www.w3.org/2000/svg" width="2000" height="2000">
<path d="M0 0 C660 0 1320 0 2000 0 C2000 660 2000 1320 2000 2000 C1340 2000 680 2000 0 2000 C0 1340 0 680 0 0 Z " fill="#057528" transform="translate(0,0)"/>
<path d="M0 0 C0.97249695 0.00343414 1.9449939 0.00686829 2.94696045 0.01040649 C31.38992998 0.12824391 59.31792673 2.63629747 86.3125 12.25 C87.46878906 12.6315625 88.62507813 13.013125 89.81640625 13.40625 C127.33605001 26.45656087 161.16118759 48.55353495 190.3125 75.25 C191.28316406 76.12785156 192.25382812 77.00570312 193.25390625 77.91015625 C201.77779497 85.63467419 210.11722219 93.51081703 217.60546875 102.26171875 C219.45355036 104.41428977 221.34988682 106.51827257 223.25 108.625 C232.38165923 118.92425688 240.34954872 130.04118353 248.3125 141.25 C248.73708496 141.84748047 249.16166992 142.44496094 249.59912109 143.06054688 C266.9868596 167.62684352 282.24083907 193.66464447 296.3125 220.25 C297.11155762 221.75554443 297.11155762 221.75554443 297.92675781 223.29150391 C320.31823013 265.61334502 339.54137049 309.21135417 357.88720703 353.41113281 C360.46836198 359.62866756 363.05989627 365.84185447 365.65234375 372.0546875 C380.19700149 406.91941045 380.19700149 406.91941045 387.3125 424.25 C390.04065241 420.93742676 391.79492606 417.35453749 393.54296875 413.46875 C394.00348129 412.4600032 394.00348129 412.4600032 394.47329712 411.43087769 C395.48712317 409.20612176 396.49364193 406.97814284 397.5 404.75 C398.21741931 403.17126275 398.93511635 401.59265167 399.65307617 400.01416016 C404.87589928 388.51148559 409.99811818 376.96491384 415.10375977 365.40988159 C420.99290985 352.09217331 427.08379241 338.87342307 433.22906494 325.67224121 C438.75782587 313.79421021 444.2081508 301.88891086 449.53857422 289.92041016 C453.67228283 280.64728473 457.89007496 271.41473058 462.125 262.1875 C468.02017051 249.34123074 473.79724125 236.44661516 479.51382446 223.51998901 C484.35453221 212.58033214 489.31853324 201.7096973 494.39282227 190.87597656 C498.69559854 181.65696148 502.82954689 172.36954394 506.9375 163.0625 C513.24319865 148.77652266 519.75077408 134.59243553 526.34790039 120.43887329 C531.80301728 108.73243595 537.16017399 96.99738338 542.28051758 85.13989258 C542.6752124 84.22747803 543.06990723 83.31506348 543.4765625 82.375 C543.81123535 81.59382812 544.1459082 80.81265625 544.49072266 80.0078125 C545.3125 78.25 545.3125 78.25 546.3125 77.25 C548.77694057 77.15499452 551.21324626 77.12442015 553.67797852 77.13647461 C554.44865662 77.13632858 555.21933472 77.13618256 556.0133667 77.1360321 C558.57274139 77.1367314 561.1320442 77.14452455 563.69140625 77.15234375 C565.46117615 77.15420787 567.23094656 77.1556318 569.00071716 77.15663147 C573.66801366 77.16045712 578.33527923 77.1702878 583.00256348 77.18133545 C587.76147035 77.19154856 592.52038221 77.19612887 597.27929688 77.20117188 C606.62371153 77.21191003 615.9681032 77.22898701 625.3125 77.25 C623.15157339 79.41092661 621.46337375 80.1460528 618.6875 81.375 C606.96525629 87.21923102 602.33714362 96.54662657 598.18546772 108.49302101 C594.11119238 123.04335989 594.76224808 137.99985866 594.83357847 152.97556853 C594.8489456 157.13776018 594.84090062 161.29991975 594.83589172 165.46212769 C594.82969836 173.59233014 594.84457561 181.72236087 594.86661734 189.8525304 C594.89142323 199.33271786 594.89422678 208.81287484 594.89602111 218.29308994 C594.8998888 235.21089277 594.92229712 252.12861873 594.95581055 269.04638672 C594.98826454 285.44287437 595.00949724 301.83932146 595.01733398 318.23583984 C595.01781948 319.2467066 595.01830497 320.25757335 595.01880517 321.29907243 C595.02073414 325.36300916 595.02264626 329.4269459 595.02452127 333.49088266 C595.03206107 349.14952518 595.0476833 364.8081611 595.06501788 380.4667955 C595.07024539 385.18944793 595.07517882 389.91210024 595.0793798 394.6347537 C595.08831421 404.55760715 595.100145 414.4804413 595.12094583 424.4032778 C595.12951178 428.50389986 595.13661525 432.60450878 595.13946152 436.70513916 C595.14214691 440.46387996 595.14948756 444.22258279 595.16045199 447.9813083 C595.16513084 449.97358589 595.16505568 451.96587293 595.16477031 453.95815599 C595.20633634 465.17279123 595.84255883 475.53655665 599.3125 486.25 C599.663125 487.33925781 600.01375 488.42851563 600.375 489.55078125 C604.284528 500.70065223 609.96457675 507.50927933 620.3125 513.25 C621.96767494 513.94470723 623.63198014 514.61906798 625.3125 515.25 C625.3125 515.58 625.3125 515.91 625.3125 516.25 C587.0325 516.25 548.7525 516.25 509.3125 516.25 C511.89230137 514.53013242 514.18411481 513.42083119 517 512.1875 C526.49635453 507.44625438 531.03666223 500.04507927 534.3125 490.25 C534.62572384 489.52768535 534.93894767 488.80537069 535.26166314 488.06116772 C539.35953925 477.09865065 539.75009237 465.21809937 539.67326355 453.65893555 C539.67457588 452.16019687 539.67721011 450.66145888 539.68103105 449.16272449 C539.68766417 445.09421671 539.67584386 441.02595079 539.66069686 436.95747375 C539.64763572 432.55144325 539.65213302 428.14542433 539.65440369 423.73937988 C539.65597011 416.12214983 539.64662732 408.5049974 539.62969017 400.88778687 C539.60521854 389.87484615 539.59748658 378.86194264 539.5937262 367.84897768 C539.58717446 349.97742223 539.56724813 332.10590806 539.53881836 314.234375 C539.51124461 296.88281459 539.49002729 279.53126542 539.47729492 262.1796875 C539.47611267 260.57301525 539.47611267 260.57301525 539.47490653 258.93388498 C539.47099117 253.55994955 539.4672001 248.18601404 539.46347082 242.81207848 C539.43241475 198.29135707 539.37961393 153.77068068 539.3125 109.25 C537.11504253 114.05131686 534.91817454 118.85290285 532.72182369 123.65472603 C531.9764606 125.28408312 531.23094379 126.9133699 530.48526287 128.54258156 C525.6745405 139.0536857 520.89375439 149.57540172 516.24072266 160.1574707 C510.21118989 173.86079968 504.01641494 187.48293832 497.73901367 201.07421875 C492.51871531 212.38189576 487.40646153 223.73212501 482.375 235.125 C476.7458349 247.86966214 470.98383992 260.54679105 465.125 273.1875 C459.45358465 285.4250248 453.8378555 297.6815648 448.34155273 309.99902344 C443.65784805 320.49411198 438.92731012 330.96763886 434.1875 341.4375 C433.37759474 343.22704651 432.56769894 345.01659731 431.7578125 346.80615234 C428.43944719 354.13770523 425.11980381 361.4686785 421.79833984 368.79882812 C421.38422852 369.71277847 420.97011719 370.62672882 420.54345703 371.56837463 C419.7121596 373.4029967 418.88077986 375.23758147 418.04931641 377.0721283 C416.02561884 381.53848582 414.00489059 386.00614267 411.99072266 390.47680664 C411.21913012 392.18898945 410.4474839 393.90114807 409.67578125 395.61328125 C409.11769775 396.85169518 409.11769775 396.85169518 408.54833984 398.11512756 C406.5085809 402.63219156 404.44377738 407.13607345 402.34324646 411.62519836 C401.44864638 413.53981279 400.56168187 415.45775728 399.67749023 417.37719727 C398.64168998 419.62056995 397.59163363 421.85744703 396.52368164 424.08569336 C396.07758545 425.06030518 395.63148926 426.03491699 395.171875 427.0390625 C394.78483398 427.86100098 394.39779297 428.68293945 393.99902344 429.52978516 C392.38674442 435.91812541 394.63932709 441.87495513 397.09375 447.75390625 C397.37874863 448.45738693 397.66374725 449.16086761 397.9573822 449.88566589 C398.89862777 452.19904981 399.85473654 454.50591027 400.8125 456.8125 C401.48728084 458.45401102 402.1618369 460.09561446 402.83618164 461.73730469 C419.87927869 503.07435242 437.33266522 544.62495025 461.84423828 582.1706543 C462.42415527 583.06308838 463.00407227 583.95552246 463.6015625 584.875 C464.12443848 585.67164063 464.64731445 586.46828125 465.18603516 587.2890625 C466.3125 589.25 466.3125 589.25 466.3125 591.25 C467.49332153 591.22643433 467.49332153 591.22643433 468.69799805 591.20239258 C548.75113526 589.83045003 620.3752643 615.5019507 684.3125 663.25 C685.22104736 663.92675781 685.22104736 663.92675781 686.14794922 664.6171875 C696.67708338 672.4938988 706.65986906 680.99135275 716.5234375 689.6796875 C719.42968414 692.23058521 722.37219765 694.73849175 725.3125 697.25 C723.5625 701.125 723.5625 701.125 721.3125 702.25 C720.46429687 701.57195313 719.61609375 700.89390625 718.7421875 700.1953125 C692.69872375 679.47687397 664.96216197 664.61136723 633.55981445 653.40991211 C631.16787465 652.55553229 628.78255826 651.6883468 626.39916992 650.81079102 C616.43443416 647.17402243 606.42418232 644.21509129 596.125 641.6875 C595.35447296 641.49645691 594.58394592 641.30541382 593.79006958 641.10858154 C570.57273194 635.38048197 547.13731003 631.94369613 523.35253906 629.55859375 C520.43884509 629.26282526 517.52796655 628.94807909 514.6171875 628.625 C512.91146511 628.43743837 511.20573638 628.24993432 509.5 628.0625 C508.74759033 627.97846924 507.99518066 627.89443848 507.2199707 627.80786133 C503.22681954 627.38139039 499.3253734 627.21986001 495.3125 627.25 C510.63616525 643.10981364 510.63616525 643.10981364 527.66357422 657.05419922 C529.37742448 658.29708323 531.06569896 659.57020962 532.75390625 660.84765625 C569.67408869 688.43057212 614.7042689 692.18778468 659.3125 686.25 C659.3125 689.22 659.3125 692.19 659.3125 695.25 C648.76414409 696.83209342 638.11042442 696.55069798 627.46679688 696.60009766 C624.89964617 696.61647143 622.33253737 696.64350638 619.765625 696.68212891 C594.07201861 697.06526749 569.62283003 693.72839549 545.3125 685.25 C544.075 684.82332031 542.8375 684.39664063 541.5625 683.95703125 C525.33100588 677.88801865 509.30877647 669.47259687 495.3125 659.25 C493.78386859 658.15492779 492.25522129 657.05987774 490.7265625 655.96484375 C482.16289124 649.78336469 473.9905057 643.51025305 466.3125 636.25 C464.81832914 634.93086783 463.31861519 633.61797818 461.8125 632.3125 C459.91279241 630.66582723 458.09121894 629.02871894 456.3125 627.25 C453.5262884 627.04829366 450.84200002 626.97071878 448.0546875 626.984375 C447.21200821 626.98160049 446.36932892 626.97882599 445.50111389 626.97596741 C442.72974862 626.97177539 439.95882114 626.98449756 437.1875 627 C436.2413382 627.00276947 435.29517639 627.00553894 434.32034302 627.00839233 C398.3302373 627.13197298 363.21760415 631.30945126 327.66699219 636.55908203 C316.0341022 638.27650725 304.39697985 639.94011193 292.74420166 641.51660156 C275.01273927 643.921473 257.37877513 646.80324004 239.7444458 649.83276367 C235.42266378 650.5742294 231.09993016 651.31011597 226.77734375 652.046875 C219.74462031 653.24639306 212.71206563 654.44689667 205.6796875 655.6484375 C204.86027176 655.78839142 204.04085602 655.92834534 203.1966095 656.07254028 C198.52885015 656.87008382 193.86191249 657.67225786 189.1953125 658.4765625 C178.85871095 660.245297 168.52344228 661.80821566 158.11743164 663.11083984 C152.17123435 663.85904678 146.25015866 664.70657381 140.32861328 665.62915039 C41.95445131 680.85532955 -61.85409493 686.94692624 -175.87304688 624.59667969 C-208.66735489 600.51090801 -234.65821065 570.23616448 -249.6875 532.25 C-250.17899536 531.02398071 -250.17899536 531.02398071 -250.68041992 529.77319336 C-253.3691367 522.77418478 -255.00032216 515.79710966 -256.375 508.4375 C-256.69307617 506.7987793 -256.69307617 506.7987793 -257.01757812 505.12695312 C-257.5880545 502.17019386 -258.14916573 499.21277496 -258.6875 496.25 C-258.86998291 495.36103027 -259.05246582 494.47206055 -259.24047852 493.55615234 C-259.86622417 488.92816347 -259.87028845 484.34902496 -259.890625 479.68359375 C-259.89632507 478.65428238 -259.90202515 477.62497101 -259.90789795 476.56446838 C-259.91733091 474.38161234 -259.92387515 472.19874216 -259.92773438 470.01586914 C-259.93731503 466.75054199 -259.96830166 463.48587937 -260 460.22070312 C-260.08968794 442.67554126 -258.62795942 425.59261998 -253.9375 408.625 C-253.68073486 407.67463867 -253.42396973 406.72427734 -253.15942383 405.74511719 C-243.93301958 372.50231331 -227.53144615 342.28966027 -203.6875 317.25 C-203.13352539 316.66347656 -202.57955078 316.07695313 -202.00878906 315.47265625 C-179.84533244 292.14764208 -152.90408494 274.38398195 -122.6875 263.25 C-121.86306396 262.93699951 -121.03862793 262.62399902 -120.18920898 262.30151367 C-113.70760802 259.87645622 -107.20315179 257.8998209 -100.5 256.1875 C-99.4989624 255.93000977 -98.4979248 255.67251953 -97.46655273 255.40722656 C-82.1465107 251.53022771 -66.29056119 248.17194099 -50.43066406 248.22924805 C-49.35399475 248.23224411 -48.27732544 248.23524017 -47.16802979 248.23832703 C-46.34945496 248.24217911 -45.53088013 248.24603119 -44.6875 248.25 C-44.74826146 231.95019701 -44.82591927 215.65057313 -44.92321491 199.35095119 C-44.96801393 191.78126361 -45.00746432 184.21162141 -45.03393555 176.6418457 C-45.05704535 170.03731427 -45.09058561 163.4329284 -45.13620156 156.82851273 C-45.15996057 153.33759823 -45.17880184 149.84682631 -45.18511391 146.35583305 C-44.72963433 113.96080102 -44.72963433 113.96080102 -59.4296875 86.12109375 C-62.5376023 83.54550346 -65.80257849 81.83695934 -69.48828125 80.22265625 C-71.6875 79.25 -71.6875 79.25 -74.6875 77.25 C-37.3975 77.25 -0.1075 77.25 38.3125 77.25 C36.12780399 79.43469601 34.2939068 80.27654889 31.5 81.5625 C23.66504485 85.4349491 18.52752705 91.38611142 15.4375 99.56640625 C14.94066176 101.17854283 14.47770691 102.80154371 14.05055714 104.4335289 C13.56963185 106.26876918 13.0661904 108.09830175 12.53717327 109.92026138 C10.41884396 117.56234581 9.87045058 124.64040266 9.88012695 132.54589844 C9.8699353 133.81561493 9.85974365 135.08533142 9.84924316 136.39352417 C9.82194575 139.83487621 9.81242633 143.27606311 9.80638909 146.71750927 C9.79693344 150.32901085 9.77072499 153.94039245 9.74638367 157.55181885 C9.70291098 164.37251041 9.67424649 171.19317843 9.65106028 178.01396585 C9.62390475 185.78683836 9.58000017 193.55958902 9.53477156 201.3323741 C9.44220116 217.30485318 9.3703949 233.27735528 9.3125 249.25 C10.45412598 249.37769775 11.59575195 249.50539551 12.77197266 249.63696289 C14.29852009 249.81120754 15.82504907 249.98561397 17.3515625 250.16015625 C18.47510132 250.28517517 18.47510132 250.28517517 19.62133789 250.41271973 C26.64313308 251.22146308 33.44007197 252.58267448 40.3125 254.25 C41.17359375 254.45238281 42.0346875 254.65476562 42.921875 254.86328125 C58.46646623 258.79770419 73.24048644 264.61676311 87.3125 272.25 C87.97733398 272.60320312 88.64216797 272.95640625 89.32714844 273.3203125 C114.23901481 286.58120068 135.47274869 304.56827141 152.3125 327.25 C152.73966309 327.81638184 153.16682617 328.38276367 153.60693359 328.96630859 C154.80201851 330.56520789 155.96437007 332.18841715 157.125 333.8125 C157.79144531 334.74191406 158.45789063 335.67132812 159.14453125 336.62890625 C160.3125 339.25 160.3125 339.25 159.63671875 341.96484375 C158.3125 344.25 158.3125 344.25 156.3125 346.25 C155.92320312 345.60675781 155.53390625 344.96351563 155.1328125 344.30078125 C144.70106779 327.45135027 132.1413895 312.2660913 116.3125 300.25 C115.52230469 299.6209375 114.73210937 298.991875 113.91796875 298.34375 C99.29016676 287.10222658 82.52620146 278.7157853 65.3125 272.25 C64.63993164 271.99637695 63.96736328 271.74275391 63.27441406 271.48144531 C55.05012053 268.43586735 46.86733985 266.3747988 38.26171875 264.828125 C35.3125 264.25 35.3125 264.25 33.3125 263.25 C31.50310618 262.96043155 29.68632543 262.71630518 27.8671875 262.49609375 C26.79082031 262.36396484 25.71445312 262.23183594 24.60546875 262.09570312 C22.91357422 261.89364258 22.91357422 261.89364258 21.1875 261.6875 C20.05183594 261.54892578 18.91617187 261.41035156 17.74609375 261.26757812 C14.93527956 260.92508396 12.12409213 260.58603805 9.3125 260.25 C9.37314049 287.2239516 9.45071509 314.19780908 9.54821491 341.17165375 C9.59309921 353.6972723 9.63253078 366.22286289 9.65893555 378.74853516 C9.68197536 389.67130884 9.71543994 400.59399348 9.76120156 411.51669645 C9.78505321 417.29526795 9.80383468 423.07375169 9.81011391 428.85237122 C9.81620135 434.30247516 9.83633215 439.75235482 9.86677551 445.20237541 C9.87549745 447.19198481 9.8792906 449.18162358 9.87750816 451.1712513 C9.86562127 470.57966284 10.72170304 492.2354743 24.9375 506.9296875 C29.21500573 510.91014422 33.8921024 513.16050433 39.3125 515.25 C39.3125 515.58 39.3125 515.91 39.3125 516.25 C1.6925 516.25 -35.9275 516.25 -74.6875 516.25 C-72.25567069 514.62878046 -69.89194595 513.28884796 -67.3125 511.9375 C-56.51668049 505.92817652 -52.56628225 496.65705062 -48.80078125 485.421875 C-45.36039024 473.27365111 -45.38165482 461.21460286 -45.36865234 448.70214844 C-45.35934052 446.64128736 -45.34917001 444.58043001 -45.33821106 442.51957703 C-45.31103836 436.95642335 -45.29579958 431.39329482 -45.28278303 425.83009243 C-45.26709651 420.00447665 -45.24032402 414.17891179 -45.2147522 408.35333252 C-45.16806186 397.33584397 -45.1312707 386.31834573 -45.09807932 375.30080914 C-45.05978891 362.75176584 -45.01039695 350.2027738 -44.96009517 337.65377378 C-44.85692032 311.85255391 -44.76761313 286.05130107 -44.6875 260.25 C-48.21141257 260.55502391 -51.73476628 260.86610019 -55.25805664 261.17822266 C-56.24978127 261.26399063 -57.24150589 261.34975861 -58.26328278 261.43812561 C-65.35184637 262.07021042 -72.18231064 263.03620298 -79.125 264.625 C-80.12523193 264.84486572 -81.12546387 265.06473145 -82.15600586 265.29125977 C-85.00446312 265.92580911 -87.8466055 266.58251039 -90.6875 267.25 C-91.43676758 267.42289551 -92.18603516 267.59579102 -92.95800781 267.77392578 C-108.51787349 271.41741029 -122.62362294 277.82492754 -136.6875 285.25 C-137.59846436 285.72542236 -137.59846436 285.72542236 -138.52783203 286.21044922 C-152.93030344 293.79504309 -164.99260364 304.02549476 -176.6875 315.25 C-177.2429248 315.78206055 -177.79834961 316.31412109 -178.37060547 316.86230469 C-215.36533433 352.97111519 -231.19737977 408.8761952 -231.97251892 459.26062012 C-232.10143654 472.34561033 -231.83982135 485.32526976 -229.6875 498.25 C-229.47746338 499.6117334 -229.47746338 499.6117334 -229.26318359 501.00097656 C-223.25831137 539.00065603 -205.6903799 570.36415293 -179.6875 598.25 C-179.00171875 598.98992188 -178.3159375 599.72984375 -177.609375 600.4921875 C-140.67153968 638.93489759 -83.52344548 659.63500704 -31.67822266 664.91772461 C-29.4963781 665.16013199 -27.31918678 665.44554069 -25.14599609 665.75610352 C-12.05562464 667.59067609 0.98830797 667.60229322 14.1875 667.5625 C15.37514954 667.56134186 16.56279907 667.56018372 17.78643799 667.55899048 C36.57759489 667.52285303 55.12672031 666.78233217 73.79541016 664.65136719 C76.95914322 664.29032476 80.1235591 663.97020781 83.29296875 663.6640625 C116.02021874 660.28240783 148.42214586 652.35869598 180.36639404 644.71484375 C183.08800921 644.06476311 185.81153278 643.42285741 188.53515625 642.78125 C192.62767114 641.81495656 196.71747251 640.83792915 200.80566406 639.85351562 C203.61741051 639.17659342 206.42976744 638.50224294 209.2421875 637.828125 C214.53614963 636.55887757 219.82966643 635.28778415 225.12304688 634.01611328 C231.40053097 632.50824853 237.67836306 631.00183265 243.95629883 629.49584961 C249.05345167 628.27296076 254.15023313 627.04857581 259.24609375 625.8203125 C264.4486512 624.56678694 269.65292804 623.3205651 274.85791016 622.07714844 C277.22790478 621.50968965 279.59734378 620.93990674 281.96630859 620.36816406 C305.04060565 614.80348097 328.21154423 609.75136772 351.44618225 604.90092468 C356.45734396 603.85397031 361.46231306 602.78533954 366.4609375 601.6796875 C385.53556757 597.53856667 404.94145905 595.49539461 424.3125 593.25 C423.52528564 592.28102783 422.73807129 591.31205566 421.92700195 590.3137207 C416.17061293 583.19552529 410.56618725 576.07118552 405.5 568.4375 C404.40149897 566.80568165 403.30254625 565.17416726 402.203125 563.54296875 C401.69845703 562.79063965 401.19378906 562.03831055 400.67382812 561.26318359 C399.07295474 558.8957514 397.41832926 556.57027347 395.75 554.25 C368.19971571 514.95032977 347.27878063 470.98668832 328.04321289 427.17163086 C324.87367316 419.95934955 321.64906412 412.78462235 318.26953125 405.66796875 C314.43432456 397.58336436 310.84099128 389.409788 307.3125 381.1875 C306.63936587 379.62523687 305.96601749 378.06306604 305.29248047 376.50097656 C301.03497058 366.6185255 296.80271244 356.7252553 292.5703125 346.83203125 C276.16499751 308.48630701 259.69198507 270.18912177 242.19433594 232.32666016 C240.9533492 229.64094857 239.71696431 226.95320668 238.48535156 224.26318359 C219.69799434 183.23179442 198.61514511 143.60634365 170.3125 108.25 C170.22084887 152.54853929 170.15041278 196.84706851 170.10823868 241.145684 C170.10323614 246.38122113 170.09805883 251.61675807 170.09277344 256.85229492 C170.0917242 257.89455081 170.09067495 258.93680671 170.08959392 260.01064611 C170.07221138 276.86389161 170.04068559 293.71708226 170.00388882 310.57029527 C169.96641945 327.87651385 169.94425149 345.1827038 169.93614602 362.48896128 C169.93067067 373.15898324 169.91340726 383.82885015 169.88083413 394.49882437 C169.85961216 401.82586779 169.85331726 409.15283162 169.85849449 416.47990351 C169.86104437 420.70074613 169.85726864 424.92131872 169.8356781 429.14211273 C169.26601916 464.36034416 169.26601916 464.36034416 185.59765625 494.67578125 C195.75034812 503.99590613 206.5021683 510.2755413 219.3125 515.25 C219.3125 515.58 219.3125 515.91 219.3125 516.25 C184.6625 516.25 150.0125 516.25 114.3125 516.25 C117.14005908 514.36496061 119.96162135 513.04968683 123.06323242 511.6875 C139.70226365 504.28996696 150.14254073 494.13579409 157.3125 477.25 C160.77702291 466.9898364 161.90730714 457.52536115 161.88772583 446.69030762 C161.89952904 445.18248643 161.91301552 443.67467767 161.92801559 442.1668849 C161.96376935 438.06811964 161.97515771 433.96961204 161.98198915 429.87071013 C161.99360051 425.43293098 162.02785945 420.99531192 162.0586853 416.55763245 C162.12783253 405.8704141 162.15930696 395.18321132 162.18693191 384.49581838 C162.20089589 379.45203148 162.21919969 374.40826071 162.23714828 369.36448669 C162.29549275 352.58466339 162.34509329 335.80485558 162.36639595 319.02494049 C162.36777734 317.95356263 162.36915873 316.88218476 162.37058198 315.77834091 C162.37265802 314.16763697 162.37265802 314.16763697 162.37477601 312.52439356 C162.37759991 310.34878188 162.38044153 308.17317023 162.38330078 305.99755859 C162.38471112 304.91840138 162.38612146 303.83924417 162.38757454 302.72738522 C162.41209126 285.22994389 162.49774159 267.73336757 162.60918118 250.23628539 C162.72286254 232.2402657 162.78370368 214.24468338 162.79242027 196.24830103 C162.79857242 186.15634397 162.82736336 176.0655923 162.91498184 165.97398376 C162.98935192 157.3848533 163.01545994 148.79725526 162.97957207 140.20784891 C162.96271875 135.83013044 162.96802481 131.45553771 163.03520966 127.07823372 C164.0940334 107.20903218 164.0940334 107.20903218 156.39673412 89.74308348 C154.05084893 87.42074256 151.62505424 85.37378836 148.94323802 83.45140076 C146.71591176 81.81048025 144.90489526 79.86441722 143.05078125 77.8203125 C136.14532488 70.82581591 129.13349118 64.22829446 121.3125 58.25 C120.7345166 57.80092285 120.1565332 57.3518457 119.56103516 56.88916016 C109.50964337 49.08703087 99.13537877 41.93862405 88.3125 35.25 C87.71759766 34.87891113 87.12269531 34.50782227 86.50976562 34.12548828 C70.64910649 24.31882646 53.303985 17.91355 35.3125 13.25 C34.1670874 12.93240723 34.1670874 12.93240723 32.99853516 12.60839844 C3.04702422 4.55410336 -31.73111533 7.82814037 -61.6875 14.25 C-62.67524414 14.4577002 -63.66298828 14.66540039 -64.68066406 14.87939453 C-68.64894969 15.7214251 -72.60408337 16.59657608 -76.546875 17.55078125 C-79.6875 18.25 -79.6875 18.25 -82.6875 18.25 C-83.6775 15.28 -83.6775 15.28 -84.6875 12.25 C-73.94321662 8.50939764 -63.32525313 5.83422022 -52.0625 4.1875 C-51.01449219 4.02701172 -49.96648437 3.86652344 -48.88671875 3.70117188 C-45.49022292 3.19108294 -42.09023024 2.71663627 -38.6875 2.25 C-37.41318115 2.06614746 -36.1388623 1.88229492 -34.82592773 1.69287109 C-23.21212174 0.10288523 -11.70857349 -0.06763553 0 0 Z " fill="#FDFDFD" transform="translate(632.6875,571.75)"/>
<path d="M0 0 C4.69557647 -0.09954745 9.39052663 -0.17178467 14.08691406 -0.21972656 C15.68142408 -0.23973053 17.27586178 -0.26694301 18.87011719 -0.30175781 C37.03073505 -0.68815394 37.03073505 -0.68815394 43.49755859 5.4128418 C47.17235831 9.48039306 48.82145534 13.03600876 49.3125 18.4375 C48.8983669 23.15861729 47.81175829 26.31576152 44.27954102 29.59936523 C43.65233154 30.12216064 43.02512207 30.64495605 42.37890625 31.18359375 C41.74670166 31.7139624 41.11449707 32.24433105 40.46313477 32.79077148 C39.98030029 33.18981689 39.49746582 33.5888623 39 34 C41.21723041 37.73638564 43.45084245 41.46271665 45.6875 45.1875 C46.31333984 46.24259766 46.93917969 47.29769531 47.58398438 48.38476562 C52.35099241 57.03487572 52.35099241 57.03487572 59.9921875 62.83203125 C62.42799104 63.0358047 64.69204933 62.93079507 67.125 62.6875 C67.99382812 62.60886719 68.86265625 62.53023437 69.7578125 62.44921875 C72.19272369 62.17689059 72.19272369 62.17689059 74 60 C74.29265487 57.61367376 74.29265487 57.61367376 74.22705078 54.81591797 C74.22689972 53.73494843 74.22674866 52.65397888 74.22659302 51.54025269 C74.21627045 50.36939117 74.20594788 49.19852966 74.1953125 47.9921875 C74.1924826 46.79643097 74.18965271 45.60067444 74.18673706 44.36868286 C74.17551305 40.53735481 74.15040431 36.70625778 74.125 32.875 C74.11497308 30.28255545 74.10584673 27.69010725 74.09765625 25.09765625 C74.07556646 18.73169158 74.04206706 12.36586229 74 6 C71.03 5.01 68.06 4.02 65 3 C65 2.34 65 1.68 65 1 C80.18 1 95.36 1 111 1 C111 5.95 111 10.9 111 16 C110.01 15.505 110.01 15.505 109 15 C108.36614078 12.95756472 107.98173496 10.90867481 107.5625 8.8125 C107.376875 8.214375 107.19125 7.61625 107 7 C104.59458071 5.79729036 102.89633409 5.79683337 100.2109375 5.68359375 C99.36321777 5.64548584 98.51549805 5.60737793 97.64208984 5.56811523 C96.02488037 5.50346069 96.02488037 5.50346069 94.375 5.4375 C90.95125 5.293125 87.5275 5.14875 84 5 C84 13.25 84 21.5 84 30 C88.640625 29.814375 88.640625 29.814375 93.375 29.625 C94.34872559 29.59100098 95.32245117 29.55700195 96.32568359 29.52197266 C97.47544678 29.46855713 97.47544678 29.46855713 98.6484375 29.4140625 C99.82672119 29.36693115 99.82672119 29.36693115 101.02880859 29.31884766 C103.23002939 29.1600535 103.23002939 29.1600535 105 27 C105.64767793 24.42938689 105.64767793 24.42938689 106 22 C106.66 22 107.32 22 108 22 C108 28.93 108 35.86 108 43 C107.34 43 106.68 43 106 43 C105.690625 41.865625 105.38125 40.73125 105.0625 39.5625 C104.37075469 36.21224901 104.37075469 36.21224901 103 35 C101.58672053 34.84379445 100.1664541 34.74943827 98.74609375 34.68359375 C97.89208984 34.64169922 97.03808594 34.59980469 96.15820312 34.55664062 C95.26037109 34.51732422 94.36253906 34.47800781 93.4375 34.4375 C92.53580078 34.39431641 91.63410156 34.35113281 90.70507812 34.30664062 C88.47021515 34.20021858 86.23523692 34.09820012 84 34 C84.13813025 38.14612814 84.28678859 42.29181162 84.4375 46.4375 C84.47681641 47.62150391 84.51613281 48.80550781 84.55664062 50.02539062 C84.59853516 51.15009766 84.64042969 52.27480469 84.68359375 53.43359375 C84.72025146 54.47572021 84.75690918 55.51784668 84.79467773 56.59155273 C84.73515341 58.9499826 84.73515341 58.9499826 86 60 C89.40687922 60.33492217 92.82877845 60.325022 96.25 60.375 C97.20519531 60.41238281 98.16039062 60.44976563 99.14453125 60.48828125 C105.04318638 60.56809897 105.04318638 60.56809897 110.08984375 57.68359375 C112.11200906 54.84263757 113.13855884 52.36745179 114 49 C114.66 49 115.32 49 116 49 C115.85975781 51.47960136 115.7130815 53.95852402 115.5625 56.4375 C115.52318359 57.14455078 115.48386719 57.85160156 115.44335938 58.58007812 C115.11328125 63.88671875 115.11328125 63.88671875 114 65 C112.16674004 65.14436533 110.32803702 65.22011714 108.48974609 65.26879883 C107.31117035 65.30165482 106.1325946 65.3345108 104.91830444 65.36836243 C102.99034531 65.41225349 102.99034531 65.41225349 101.0234375 65.45703125 C99.05281845 65.50243294 99.05281845 65.50243294 97.04238892 65.54875183 C94.25310413 65.61086477 91.46375626 65.66774896 88.67431641 65.72241211 C85.11301458 65.79363005 81.55277018 65.88864387 77.99219322 65.98918629 C74.58626857 66.07968286 71.17992733 66.14123933 67.7734375 66.20703125 C66.50027679 66.24641312 65.22711609 66.28579498 63.91537476 66.32637024 C55.82220488 66.44190722 51.35352998 65.81738673 45.18408203 60.40771484 C41.95949747 56.51280388 39.53239107 52.49730299 37.16918945 48.03271484 C33.32067829 40.37574051 33.32067829 40.37574051 26.62109375 35.609375 C22.97223309 35.24741243 22.97223309 35.24741243 18 36 C18.33 43.92 18.66 51.84 19 60 C21.97 60.99 24.94 61.98 28 63 C28 63.66 28 64.32 28 65 C18.76 65 9.52 65 0 65 C0 64.34 0 63.68 0 63 C1.134375 62.71125 2.26875 62.4225 3.4375 62.125 C4.613125 61.75375 5.78875 61.3825 7 61 C8.24225317 58.51549367 8.14028353 56.82666954 8.16113281 54.04711914 C8.17554413 52.50025169 8.17554413 52.50025169 8.19024658 50.9221344 C8.19449646 49.80443161 8.19874634 48.68672882 8.203125 47.53515625 C8.20882507 46.39090683 8.21452515 45.24665741 8.22039795 44.06773376 C8.22985619 41.64420499 8.23638519 39.22066331 8.24023438 36.79711914 C8.2499508 33.08131628 8.28097158 29.36606383 8.3125 25.65039062 C8.31902872 23.29948246 8.3242797 20.94857033 8.328125 18.59765625 C8.3404718 17.48197769 8.3528186 16.36629913 8.36553955 15.21681213 C8.36253845 14.18241501 8.35953735 13.14801788 8.35644531 12.08227539 C8.36009094 11.17119522 8.36373657 10.26011505 8.36749268 9.32142639 C7.9244212 6.52257384 7.26721636 5.65663581 5 4 C1.89160979 3.2730774 1.89160979 3.2730774 -1 3 C-0.67 2.01 -0.34 1.02 0 0 Z " fill="#ECF5EF" transform="translate(1065,1349)"/>
<path d="M0 0 C2.26921536 -0.13489391 4.5407067 -0.23193995 6.8125 -0.3125 C8.70935547 -0.39951172 8.70935547 -0.39951172 10.64453125 -0.48828125 C11.75183594 -0.32714844 12.85914063 -0.16601562 14 0 C16.34149452 3.30825495 17.98048056 6.93884078 19.671875 10.61328125 C20.16848633 11.68964844 20.66509766 12.76601562 21.17675781 13.875 C21.69592773 15.009375 22.21509766 16.14375 22.75 17.3125 C23.28206055 18.47136719 23.81412109 19.63023438 24.36230469 20.82421875 C27.35889254 27.36752791 30.34156233 33.91696532 33.25 40.5 C33.68070801 41.46740112 33.68070801 41.46740112 34.12011719 42.4543457 C36 46.75913439 36 46.75913439 36 49 C36.66 49 37.32 49 38 49 C38.17378174 48.44729431 38.34756348 47.89458862 38.52661133 47.32513428 C40.26845122 41.92631785 42.30903811 36.78732768 44.6875 31.640625 C45.03127686 30.88835632 45.37505371 30.13608765 45.72924805 29.36102295 C46.44977346 27.78703068 47.17253429 26.21405991 47.89746094 24.64208984 C49.00254562 22.24447698 50.0994311 19.84323747 51.1953125 17.44140625 C51.90056208 15.90342583 52.60627512 14.36565782 53.3125 12.828125 C53.63758545 12.11658264 53.9626709 11.40504028 54.29760742 10.67193604 C57.87927319 2.92645599 57.87927319 2.92645599 60 0 C63.35546875 -0.48828125 63.35546875 -0.48828125 67.1875 -0.3125 C68.45980469 -0.26738281 69.73210937 -0.22226563 71.04296875 -0.17578125 C72.01878906 -0.11777344 72.99460937 -0.05976562 74 0 C74 0.66 74 1.32 74 2 C72.35 2.66 70.7 3.32 69 4 C68.89919306 15.54627153 69.07292277 27.04281634 69.68969727 38.57397461 C69.8151397 40.98830509 69.92012573 43.40307447 70.02539062 45.81835938 C70.10552832 47.36725229 70.18686063 48.91608397 70.26953125 50.46484375 C70.29779495 51.18034897 70.32605865 51.89585419 70.35517883 52.63304138 C70.52817453 55.5112635 70.67635273 57.54707736 72.37768555 59.92797852 C74.51181297 61.33820478 76.48722352 61.66043561 79 62 C79 62.66 79 63.32 79 64 C70.42 64 61.84 64 53 64 C53 63.34 53 62.68 53 62 C55.31 61.34 57.62 60.68 60 60 C60.16188473 50.54323368 59.65311243 41.17629717 59 31.75 C58.90328091 30.3112224 58.80692457 28.87242037 58.7109375 27.43359375 C58.47812623 23.95543839 58.24045444 20.47763634 58 17 C55.66943295 21.92503711 53.3399717 26.85059523 51.01147461 31.77661133 C50.22140388 33.44764873 49.43104623 35.11855051 48.64038086 36.78930664 C44.361984 45.83049823 40.09080108 54.87181883 36 64 C33 63 33 63 31.97607422 61.44625854 C31.6720166 60.77676178 31.36795898 60.10726501 31.0546875 59.41748047 C30.70422363 58.65934052 30.35375977 57.90120056 29.99267578 57.12008667 C29.62384277 56.29412994 29.25500977 55.46817322 28.875 54.6171875 C28.48683105 53.76955841 28.09866211 52.92192932 27.69873047 52.0486145 C26.45596573 49.3284426 25.22796151 46.60188167 24 43.875 C23.17281591 42.05946685 22.34470178 40.24435713 21.515625 38.4296875 C18.27291191 31.31587973 15.05497954 24.19673443 12 17 C9.28916029 31.23190848 9.80366652 45.57250953 10 60 C12.31 60.66 14.62 61.32 17 62 C17 62.66 17 63.32 17 64 C9.74 64 2.48 64 -5 64 C-5 63.34 -5 62.68 -5 62 C-4.05125 61.855625 -3.1025 61.71125 -2.125 61.5625 C-1.09375 61.046875 -0.0625 60.53125 1 60 C3.41141772 52.38896281 3.58739884 44.43134136 4.00537109 36.50878906 C4.12402993 34.26831648 4.25442177 32.02876682 4.38671875 29.7890625 C4.87770681 21.18501335 5.11853766 12.62126273 5 4 C2.525 3.01 2.525 3.01 0 2 C0 1.34 0 0.68 0 0 Z " fill="#F5F9F6" transform="translate(915,1350)"/>
<path d="M0 0 C7.92 0 15.84 0 24 0 C22.02 0.99 22.02 0.99 20 2 C17.62341531 3.76867614 17.07039568 4.58585396 16.56762695 7.54370117 C16.54144287 8.53345947 16.51525879 9.52321777 16.48828125 10.54296875 C16.45516846 11.51000732 16.42205566 12.4770459 16.38793945 13.47338867 C16.36304443 14.69904541 16.33814941 15.92470215 16.3125 17.1875 C16.209375 21.085625 16.10625 24.98375 16 29 C28.21 29 40.42 29 53 29 C52.505 16.625 52.505 16.625 52 4 C47.545 3.01 47.545 3.01 43 2 C43 1.34 43 0.68 43 0 C51.91 0 60.82 0 70 0 C68.68 0.66 67.36 1.32 66 2 C63.41028427 4.58971573 63.74251783 5.6407412 63.7253418 9.24414062 C63.71580978 10.33867554 63.70627777 11.43321045 63.69645691 12.56091309 C63.69736832 13.74737427 63.69827972 14.93383545 63.69921875 16.15625 C63.69279106 17.97606384 63.69279106 17.97606384 63.68623352 19.8326416 C63.68048208 22.40160497 63.67999591 24.97058463 63.68432617 27.53955078 C63.68748692 31.48367903 63.66403307 35.4270583 63.63867188 39.37109375 C63.63639917 41.86197821 63.63569525 44.35286471 63.63671875 46.84375 C63.627509 48.03021118 63.61829926 49.21667236 63.60881042 50.43908691 C63.61815361 52.08088928 63.61815361 52.08088928 63.62768555 53.75585938 C63.62705612 54.72245483 63.6264267 55.68905029 63.6257782 56.68493652 C63.81101799 57.83089294 63.81101799 57.83089294 64 59 C66.91765 60.9451 68.62537285 61.45276317 72 62 C72 62.66 72 63.32 72 64 C62.1 64 52.2 64 42 64 C42 63.34 42 62.68 42 62 C42.62648438 61.87882812 43.25296875 61.75765625 43.8984375 61.6328125 C45.12433594 61.38144531 45.12433594 61.38144531 46.375 61.125 C47.59316406 60.88136719 47.59316406 60.88136719 48.8359375 60.6328125 C51.18673923 60.13341068 51.18673923 60.13341068 53 58 C53.37135915 55.47962036 53.37135915 55.47962036 53.4140625 52.5546875 C53.44967285 51.58515137 53.4852832 50.61561523 53.52197266 49.61669922 C53.55597168 48.38193848 53.5899707 47.14717773 53.625 45.875 C53.74875 41.95625 53.8725 38.0375 54 34 C41.46 34 28.92 34 16 34 C16.103125 37.898125 16.20625 41.79625 16.3125 45.8125 C16.33739502 47.03815674 16.36229004 48.26381348 16.38793945 49.52661133 C16.42105225 50.4936499 16.45416504 51.46068848 16.48828125 52.45703125 C16.51446533 53.44678955 16.54064941 54.43654785 16.56762695 55.45629883 C17.06236074 58.36687555 17.64360109 59.27656901 20 61 C22.60611077 61.72197162 22.60611077 61.72197162 25 62 C25 62.66 25 63.32 25 64 C16.42 64 7.84 64 -1 64 C-1 63.34 -1 62.68 -1 62 C2.465 61.505 2.465 61.505 6 61 C6 42.19 6 23.38 6 4 C4.02 3.34 2.04 2.68 0 2 C0 1.34 0 0.68 0 0 Z " fill="#F0F6F2" transform="translate(809,1350)"/>
<path d="M0 0 C3.3 0 6.6 0 10 0 C10.34705742 0.97599655 10.34705742 0.97599655 10.7011261 1.97171021 C12.88908759 8.12255342 15.0807271 14.27207219 17.27644062 20.42015266 C18.40497516 23.58049613 19.53211337 26.74132274 20.65600586 29.90332031 C21.95069376 33.54360237 23.25026249 37.18211012 24.55078125 40.8203125 C25.15095818 42.51282639 25.15095818 42.51282639 25.76325989 44.23953247 C28.63642671 53.9136196 28.63642671 53.9136196 35.1875 60.875 C36.115625 61.24625 37.04375 61.6175 38 62 C38 62.66 38 63.32 38 64 C28.76 64 19.52 64 10 64 C10 63.34 10 62.68 10 62 C12.97 61.34 15.94 60.68 19 60 C18.56875643 51.66262432 15.93626473 44.75475045 13 37 C6.73 37 0.46 37 -6 37 C-7.20093149 40.07869719 -8.38600369 43.16197731 -9.5625 46.25 C-9.90474609 47.12269531 -10.24699219 47.99539063 -10.59960938 48.89453125 C-11.07817383 50.16103516 -11.07817383 50.16103516 -11.56640625 51.453125 C-11.86490479 52.22817383 -12.16340332 53.00322266 -12.47094727 53.80175781 C-13.25218986 56.3025238 -13.25218986 56.3025238 -12 60 C-9.03 60.66 -6.06 61.32 -3 62 C-3 62.66 -3 63.32 -3 64 C-11.25 64 -19.5 64 -28 64 C-28 63.34 -28 62.68 -28 62 C-26.9275 61.71125 -25.855 61.4225 -24.75 61.125 C-22.27256001 60.05764214 -21.2212861 59.40027674 -19.90325928 57.0161438 C-19.61259583 56.21820404 -19.32193237 55.42026428 -19.02246094 54.59814453 C-18.68952026 53.69984924 -18.35657959 52.80155396 -18.0135498 51.8760376 C-17.67907837 50.92694519 -17.34460693 49.97785278 -17 49 C-16.50361023 47.62010895 -16.50361023 47.62010895 -15.99719238 46.21234131 C-14.94355019 43.24913947 -13.91432481 40.2783602 -12.890625 37.3046875 C-12.51895203 36.23123077 -12.14727905 35.15777405 -11.76434326 34.05178833 C-10.59064757 30.66029799 -9.42026993 27.26767376 -8.25 23.875 C-7.44943879 21.55981974 -6.64865963 19.24471482 -5.84765625 16.9296875 C-3.89591772 11.287326 -1.94715181 5.64394591 0 0 Z " fill="#F3F8F4" transform="translate(1024,1350)"/>
<path d="M0 0 C3.3 0 6.6 0 10 0 C12.44333983 6.93689407 14.88613717 13.87397894 17.32825279 20.81130409 C18.4623864 24.03298714 19.59670284 27.25460557 20.73144531 30.47607422 C22.03766245 34.18437568 23.34306963 37.892962 24.6484375 41.6015625 C25.25635635 43.32688705 25.25635635 43.32688705 25.8765564 45.08706665 C26.25679962 46.16773407 26.63704285 47.24840149 27.02880859 48.36181641 C27.36190033 49.30779694 27.69499207 50.25377747 28.03817749 51.22842407 C28.72858278 53.21788746 29.33920187 55.23571262 29.89663696 57.26644897 C30.26074677 58.16852081 30.62485657 59.07059265 31 60 C34.52451159 61.46022435 34.52451159 61.46022435 38 62 C38 62.66 38 63.32 38 64 C28.76 64 19.52 64 10 64 C10 63.34 10 62.68 10 62 C12.97 61.34 15.94 60.68 19 60 C18.59095439 53.1825732 16.45315612 47.31231675 14.05859375 40.9765625 C13 38 13 38 13 36 C6.4 36 -0.2 36 -7 36 C-7.433125 37.629375 -7.86625 39.25875 -8.3125 40.9375 C-9.5131443 45.39539461 -10.90236748 49.71454216 -12.546875 54.02734375 C-13.23565836 56.34247627 -13.23565836 56.34247627 -12 60 C-9.36 60.66 -6.72 61.32 -4 62 C-4 62.66 -4 63.32 -4 64 C-11.92 64 -19.84 64 -28 64 C-28 63.34 -28 62.68 -28 62 C-26.90671387 61.64631348 -25.81342773 61.29262695 -24.68701172 60.92822266 C-21.53642318 59.56548736 -21.05698496 59.09960864 -19.24658203 55.93505859 C-18.83778809 54.68547363 -18.42899414 53.43588867 -18.0078125 52.1484375 C-17.77542877 51.46483154 -17.54304504 50.78122559 -17.30361938 50.0769043 C-16.55257865 47.85036178 -15.83907057 45.61364166 -15.125 43.375 C-14.61379928 41.83972351 -14.0997801 40.30538273 -13.58300781 38.77197266 C-12.5416544 35.67564438 -11.51227597 32.57573032 -10.49121094 29.47265625 C-8.36942584 23.06152683 -6.06264884 16.71952628 -3.75 10.375 C-3.01517327 8.341309 -2.28074856 6.30747265 -1.546875 4.2734375 C-1.03640625 2.86320312 -0.5259375 1.45296875 0 0 Z " fill="#F3F8F5" transform="translate(767,1350)"/>
<path d="M0 0 C3.3 0 6.6 0 10 0 C13.29286507 7.52654873 16.15052326 15.11860275 18.84765625 22.875 C19.18880463 23.8532373 19.529953 24.83147461 19.88143921 25.83935547 C21.30725169 29.93420043 22.72969312 34.03008839 24.13696289 38.13134766 C25.17602345 41.15376701 26.22942132 44.17087156 27.28515625 47.1875 C27.5988063 48.11353027 27.91245636 49.03956055 28.23561096 49.99365234 C30.43684295 56.26365705 30.43684295 56.26365705 35 61 C37.1381966 61.7872678 37.1381966 61.7872678 39 62 C39 62.66 39 63.32 39 64 C29.43 64 19.86 64 10 64 C10 63.34 10 62.68 10 62 C12.97 61.34 15.94 60.68 19 60 C20.78733161 54.88312492 18.92145372 51.10835654 17.0625 46.3125 C14 38.18431264 14 38.18431264 14 36 C4.1 36.495 4.1 36.495 -6 37 C-7.5159375 41.3003125 -7.5159375 41.3003125 -9.0625 45.6875 C-9.38484619 46.58170654 -9.70719238 47.47591309 -10.03930664 48.3972168 C-12.01346088 54.1128274 -12.01346088 54.1128274 -11 60 C-8.36 60.66 -5.72 61.32 -3 62 C-3 62.66 -3 63.32 -3 64 C-10.92 64 -18.84 64 -27 64 C-27 63.34 -27 62.68 -27 62 C-26.07018311 61.79995361 -25.14036621 61.59990723 -24.18237305 61.39379883 C-20.81169606 60.28324405 -20.81169606 60.28324405 -19.35864258 57.26831055 C-18.72671997 55.50161011 -18.72671997 55.50161011 -18.08203125 53.69921875 C-17.84128372 53.04394699 -17.60053619 52.38867523 -17.35249329 51.71354675 C-16.54265819 49.48400234 -15.77036922 47.24346718 -15 45 C-14.41136532 43.32998665 -13.82198533 41.66023586 -13.23193359 39.99072266 C-11.66624435 35.52704312 -10.13662536 31.05189429 -8.62084961 26.57104492 C-7.67547601 23.77696271 -6.72393843 20.98503505 -5.77148438 18.19335938 C-5.16370953 16.40637001 -4.55627473 14.61926495 -3.94921875 12.83203125 C-3.66696945 12.00290726 -3.38472015 11.17378326 -3.09391785 10.3195343 C-2.833069 9.54740097 -2.57222015 8.77526764 -2.3034668 7.97973633 C-1.96088081 6.96838371 -1.96088081 6.96838371 -1.6113739 5.93659973 C-0.99408276 3.98125643 -0.49731135 1.98924539 0 0 Z " fill="#F3F8F5" transform="translate(668,1350)"/>
<path d="M0 0 C15.18 0 30.36 0 46 0 C46 4.95 46 9.9 46 15 C45.34 14.67 44.68 14.34 44 14 C43.36614078 11.95756472 42.98173496 9.90867481 42.5625 7.8125 C42.376875 7.214375 42.19125 6.61625 42 6 C39.59458071 4.79729036 37.89633409 4.79683337 35.2109375 4.68359375 C34.36321777 4.64548584 33.51549805 4.60737793 32.64208984 4.56811523 C31.02488037 4.50346069 31.02488037 4.50346069 29.375 4.4375 C24.239375 4.2209375 24.239375 4.2209375 19 4 C19 12.25 19 20.5 19 29 C23.640625 28.814375 23.640625 28.814375 28.375 28.625 C29.34872559 28.59100098 30.32245117 28.55700195 31.32568359 28.52197266 C32.47544678 28.46855713 32.47544678 28.46855713 33.6484375 28.4140625 C34.82672119 28.36693115 34.82672119 28.36693115 36.02880859 28.31884766 C38.23002939 28.1600535 38.23002939 28.1600535 40 26 C40.64767793 23.42938689 40.64767793 23.42938689 41 21 C41.66 21 42.32 21 43 21 C43 27.93 43 34.86 43 42 C42.34 42 41.68 42 41 42 C40.690625 40.865625 40.38125 39.73125 40.0625 38.5625 C39.37075469 35.21224901 39.37075469 35.21224901 38 34 C36.58672053 33.84379445 35.1664541 33.74943827 33.74609375 33.68359375 C32.89208984 33.64169922 32.03808594 33.59980469 31.15820312 33.55664062 C30.26037109 33.51732422 29.36253906 33.47800781 28.4375 33.4375 C27.53580078 33.39431641 26.63410156 33.35113281 25.70507812 33.30664062 C23.47021515 33.20021858 21.23523692 33.09820012 19 33 C19.13813025 37.14612814 19.28678859 41.29181162 19.4375 45.4375 C19.47681641 46.62150391 19.51613281 47.80550781 19.55664062 49.02539062 C19.59853516 50.15009766 19.64042969 51.27480469 19.68359375 52.43359375 C19.72025146 53.47572021 19.75690918 54.51784668 19.79467773 55.59155273 C19.73515341 57.9499826 19.73515341 57.9499826 21 59 C24.40687922 59.33492217 27.82877845 59.325022 31.25 59.375 C32.20519531 59.41238281 33.16039062 59.44976563 34.14453125 59.48828125 C40.04318638 59.56809897 40.04318638 59.56809897 45.08984375 56.68359375 C47.11200906 53.84263757 48.13855884 51.36745179 49 48 C49.66 48 50.32 48 51 48 C50.85975781 50.47960136 50.7130815 52.95852402 50.5625 55.4375 C50.52318359 56.14455078 50.48386719 56.85160156 50.44335938 57.58007812 C50.11328125 62.88671875 50.11328125 62.88671875 49 64 C47.40389018 64.09333705 45.80366572 64.11745372 44.20483398 64.11352539 C43.18385117 64.11344986 42.16286835 64.11337433 41.11094666 64.11329651 C40.0005452 64.10813522 38.89014374 64.10297394 37.74609375 64.09765625 C36.61551041 64.0962413 35.48492706 64.09482635 34.32008362 64.09336853 C30.69252935 64.08775019 27.06503576 64.07519458 23.4375 64.0625 C20.98502693 64.05748736 18.5325529 64.05292405 16.08007812 64.04882812 C10.05336455 64.0377748 4.02668661 64.02101884 -2 64 C-2 63.34 -2 62.68 -2 62 C-1.37351562 61.95101563 -0.74703125 61.90203125 -0.1015625 61.8515625 C0.71570312 61.77679687 1.53296875 61.70203125 2.375 61.625 C3.18710938 61.55539062 3.99921875 61.48578125 4.8359375 61.4140625 C7.20334191 61.17107412 7.20334191 61.17107412 9 59 C9.29265487 56.61367376 9.29265487 56.61367376 9.22705078 53.81591797 C9.22689972 52.73494843 9.22674866 51.65397888 9.22659302 50.54025269 C9.21627045 49.36939117 9.20594788 48.19852966 9.1953125 46.9921875 C9.19106766 45.1985527 9.19106766 45.1985527 9.18673706 43.36868286 C9.17551305 39.53735481 9.15040431 35.70625778 9.125 31.875 C9.11497308 29.28255545 9.10584673 26.69010725 9.09765625 24.09765625 C9.07556646 17.73169158 9.04206706 11.36586229 9 5 C6.03 4.01 3.06 3.02 0 2 C0 1.34 0 0.68 0 0 Z " fill="#F9FBF9" transform="translate(1130,1350)"/>
<path d="M0 0 C0.495 5.94 0.495 5.94 1 12 C0.34 12 -0.32 12 -1 12 C-1.86625 10.63875 -1.86625 10.63875 -2.75 9.25 C-5.26773822 5.61326702 -7.03299759 3.94607665 -11 2 C-15.79526293 1.33283298 -19.80288332 1.41574912 -24 4 C-25.58832177 7.17664353 -25.41182039 10.54070868 -25 14 C-23.62073227 16.34261608 -23.62073227 16.34261608 -22 18 C-22 18.66 -22 19.32 -22 20 C-21.45988281 20.24363281 -20.91976563 20.48726562 -20.36328125 20.73828125 C-11.90699717 25.25295854 -1.34376201 32.66253255 2.9375 41.5 C4.46411723 46.52885677 4.66438256 50.1544929 2.875 55.125 C-0.05451025 59.61691572 -3.94244033 63.03997688 -9 65 C-16.91902443 65.62688436 -25.503069 65.7954658 -33 63 C-35.60227767 58.62817352 -35.17087946 53.95550445 -35 49 C-34.01 49.33 -33.02 49.66 -32 50 C-31.319375 51.3921875 -31.319375 51.3921875 -30.625 52.8125 C-28.56884002 56.84573689 -26.02286899 58.9885655 -22 61 C-20.21140489 61.12207871 -18.41771619 61.17548448 -16.625 61.1875 C-15.66851563 61.20167969 -14.71203125 61.21585938 -13.7265625 61.23046875 C-10.93928279 60.99486774 -9.3471755 60.48158815 -7 59 C-4.68931403 55.99610824 -4.57410986 52.7415102 -4.69140625 49.015625 C-5.65674534 42.71037218 -11.23586272 38.65396217 -16 35 C-17.87200734 33.66246821 -19.74719252 32.32937649 -21.625 31 C-27.25138244 26.94807849 -32.13050674 22.96811124 -34 16 C-34.45018052 11.8733452 -34.30340034 9.60680067 -32.4375 5.875 C-23.39008868 -4.79630566 -12.84335092 -3.06706888 0 0 Z " fill="#F2F7F3" transform="translate(1224,1350)"/>
<path d="M0 0 C0.495 5.94 0.495 5.94 1 12 C0.34 12 -0.32 12 -1 12 C-1.86625 10.63875 -1.86625 10.63875 -2.75 9.25 C-5.26773822 5.61326702 -7.03299759 3.94607665 -11 2 C-15.79526293 1.33283298 -19.80288332 1.41574912 -24 4 C-25.58832177 7.17664353 -25.41182039 10.54070868 -25 14 C-23.62073227 16.34261608 -23.62073227 16.34261608 -22 18 C-22 18.66 -22 19.32 -22 20 C-21.45988281 20.24363281 -20.91976562 20.48726562 -20.36328125 20.73828125 C-11.90699717 25.25295854 -1.34376201 32.66253255 2.9375 41.5 C4.46411723 46.52885677 4.66438256 50.1544929 2.875 55.125 C-0.05451025 59.61691572 -3.94244033 63.03997688 -9 65 C-16.91902443 65.62688436 -25.503069 65.7954658 -33 63 C-35.60227767 58.62817352 -35.17087946 53.95550445 -35 49 C-34.01 49.33 -33.02 49.66 -32 50 C-31.319375 51.3921875 -31.319375 51.3921875 -30.625 52.8125 C-28.56884002 56.84573689 -26.02286899 58.9885655 -22 61 C-20.21140489 61.12207871 -18.41771619 61.17548448 -16.625 61.1875 C-15.66851563 61.20167969 -14.71203125 61.21585938 -13.7265625 61.23046875 C-10.93928279 60.99486774 -9.3471755 60.48158815 -7 59 C-4.68931403 55.99610824 -4.57410986 52.7415102 -4.69140625 49.015625 C-5.65674534 42.71037218 -11.23586272 38.65396217 -16 35 C-17.87200734 33.66246821 -19.74719252 32.32937649 -21.625 31 C-27.25138244 26.94807849 -32.13050674 22.96811124 -34 16 C-34.45018052 11.8733452 -34.30340034 9.60680067 -32.4375 5.875 C-23.39008868 -4.79630566 -12.84335092 -3.06706888 0 0 Z " fill="#F2F7F3" transform="translate(633,1350)"/>
<path d="M0 0 C9.9 0 19.8 0 30 0 C30 0.33 30 0.66 30 1 C26.37 1 22.74 1 19 1 C19 11.56 19 22.12 19 33 C21.97 33 24.94 33 28 33 C28 33.33 28 33.66 28 34 C25.03 34 22.06 34 19 34 C19.33 42.25 19.66 50.5 20 59 C22.97 59.99 25.94 60.98 29 62 C29 62.66 29 63.32 29 64 C19.76 64 10.52 64 1 64 C1 63.34 1 62.68 1 62 C2.134375 61.71125 3.26875 61.4225 4.4375 61.125 C5.613125 60.75375 6.78875 60.3825 8 60 C9.24225317 57.51549367 9.14028353 55.82666954 9.16113281 53.04711914 C9.17554413 51.50025169 9.17554413 51.50025169 9.19024658 49.9221344 C9.19449646 48.80443161 9.19874634 47.68672882 9.203125 46.53515625 C9.20882507 45.39090683 9.21452515 44.24665741 9.22039795 43.06773376 C9.22985619 40.64420499 9.23638519 38.22066331 9.24023438 35.79711914 C9.2499508 32.08131628 9.28097158 28.36606383 9.3125 24.65039062 C9.31902872 22.29948246 9.3242797 19.94857033 9.328125 17.59765625 C9.3404718 16.48197769 9.3528186 15.36629913 9.36553955 14.21681213 C9.36253845 13.18241501 9.35953735 12.14801788 9.35644531 11.08227539 C9.36009094 10.17119522 9.36373657 9.26011505 9.36749268 8.32142639 C8.9244212 5.52257384 8.26721636 4.65663581 6 3 C2.89160979 2.2730774 2.89160979 2.2730774 0 2 C0 1.34 0 0.68 0 0 Z " fill="#F8FBF9" transform="translate(1064,1350)"/>
<path d="M0 0 C7.92 0 15.84 0 24 0 C24 0.66 24 1.32 24 2 C23.030625 2.309375 22.06125 2.61875 21.0625 2.9375 C18.15934208 3.69523342 18.15934208 3.69523342 17 5 C16.89602982 6.67708424 16.86147091 8.35852791 16.85473633 10.03881836 C16.84835648 11.11340805 16.84197662 12.18799774 16.83540344 13.29515076 C16.83429062 14.46489944 16.8331778 15.63464813 16.83203125 16.83984375 C16.82870285 18.03227188 16.82537445 19.22470001 16.82194519 20.45326233 C16.81687084 22.98112603 16.81453702 25.50899645 16.81469727 28.03686523 C16.8125114 31.91726654 16.79436243 35.79738346 16.77539062 39.67773438 C16.77245677 42.12760319 16.77047192 44.57747336 16.76953125 47.02734375 C16.76234573 48.19506821 16.75516022 49.36279266 16.74775696 50.56590271 C16.75083359 51.64364456 16.75391022 52.72138641 16.75708008 53.83178711 C16.75565506 54.78363388 16.75423004 55.73548065 16.75276184 56.71617126 C16.78001159 59.19794194 16.78001159 59.19794194 19 61 C21.57061311 61.64767793 21.57061311 61.64767793 24 62 C24 62.66 24 63.32 24 64 C16.08 64 8.16 64 0 64 C0 63.34 0 62.68 0 62 C1.98 61.34 3.96 60.68 6 60 C6 41.52 6 23.04 6 4 C4.02 3.34 2.04 2.68 0 2 C0 1.34 0 0.68 0 0 Z " fill="#F3F8F5" transform="translate(711,1350)"/>
<path d="M0 0 C7.92 0 15.84 0 24 0 C24 0.66 24 1.32 24 2 C23.030625 2.309375 22.06125 2.61875 21.0625 2.9375 C18.15934208 3.69523342 18.15934208 3.69523342 17 5 C16.89602982 6.67708424 16.86147091 8.35852791 16.85473633 10.03881836 C16.84835648 11.11340805 16.84197662 12.18799774 16.83540344 13.29515076 C16.83429062 14.46489944 16.8331778 15.63464813 16.83203125 16.83984375 C16.82870285 18.03227188 16.82537445 19.22470001 16.82194519 20.45326233 C16.81687084 22.98112603 16.81453702 25.50899645 16.81469727 28.03686523 C16.8125114 31.91726654 16.79436243 35.79738346 16.77539062 39.67773438 C16.77245677 42.12760319 16.77047192 44.57747336 16.76953125 47.02734375 C16.76234573 48.19506821 16.75516022 49.36279266 16.74775696 50.56590271 C16.75083359 51.64364456 16.75391022 52.72138641 16.75708008 53.83178711 C16.75565506 54.78363388 16.75423004 55.73548065 16.75276184 56.71617126 C16.78001159 59.19794194 16.78001159 59.19794194 19 61 C21.57061311 61.64767793 21.57061311 61.64767793 24 62 C24 62.66 24 63.32 24 64 C16.08 64 8.16 64 0 64 C0 63.34 0 62.68 0 62 C1.98 61.34 3.96 60.68 6 60 C6 41.52 6 23.04 6 4 C4.02 3.34 2.04 2.68 0 2 C0 1.34 0 0.68 0 0 Z " fill="#F3F8F5" transform="translate(566,1350)"/>
<path d="M0 0 C7.92 0 15.84 0 24 0 C24 0.66 24 1.32 24 2 C23.030625 2.12375 22.06125 2.2475 21.0625 2.375 C19.5465625 2.684375 19.5465625 2.684375 18 3 C16.7320812 5.53583759 16.8661399 7.313773 16.85473633 10.15234375 C16.84835648 11.22685791 16.84197662 12.30137207 16.83540344 13.40844727 C16.83429062 14.57303467 16.8331778 15.73762207 16.83203125 16.9375 C16.82870285 18.12851318 16.82537445 19.31952637 16.82194519 20.54663086 C16.8168754 23.0685182 16.81453688 25.59041226 16.81469727 28.11230469 C16.81250914 31.98383545 16.79434916 35.85508214 16.77539062 39.7265625 C16.77245713 42.17187402 16.77047204 44.6171869 16.76953125 47.0625 C16.76234573 48.2270874 16.75516022 49.3916748 16.74775696 50.59155273 C16.75083359 51.66606689 16.75391022 52.74058105 16.75708008 53.84765625 C16.75565506 54.79648682 16.75423004 55.74531738 16.75276184 56.72290039 C16.78094819 59.19871429 16.78094819 59.19871429 19 61 C21.06874034 61.6425235 21.06874034 61.6425235 23 62 C23 62.66 23 63.32 23 64 C15.41 64 7.82 64 0 64 C0 63.34 0 62.68 0 62 C2.97 61.505 2.97 61.505 6 61 C6 42.19 6 23.38 6 4 C4.02 3.34 2.04 2.68 0 2 C0 1.34 0 0.68 0 0 Z " fill="#F8FBF9" transform="translate(1236,1350)"/>
<path d="M0 0 C13.66666667 0 13.66666667 0 18 4 C22.14316571 8.36227543 21.48254599 12.90526174 21.3515625 18.6328125 C20.88473948 23.10393969 20.20288659 24.88367791 17 28 C12 30 12 30 0 30 C0 20.1 0 10.2 0 0 Z " fill="#067629" transform="translate(1083,1352)"/>
<path d="M0 0 C0.33 0 0.66 0 1 0 C1 119.46 1 238.92 1 362 C0.67 362 0.34 362 0 362 C-0.495 186.275 -0.495 186.275 -1 7 C-1.99 7.495 -1.99 7.495 -3 8 C-1.125 2.25 -1.125 2.25 0 0 Z " fill="#1B813A" transform="translate(1172,679)"/>
<path d="M0 0 C3.37478448 2.6919102 4.30155263 6.00447605 5.6875 10 C6.12449219 11.2375 6.56148437 12.475 7.01171875 13.75 C8 17 8 17 8 20 C3.38 20 -1.24 20 -6 20 C-5.46137794 14.07515739 -4.29622483 4.29622483 0 0 Z " fill="#117B32" transform="translate(671,1360)"/>
<path d="M0 0 C0.66 0 1.32 0 2 0 C3.00816056 2.58041096 4.0067111 5.16386944 5 7.75 C5.28617188 8.47960938 5.57234375 9.20921875 5.8671875 9.9609375 C6.13789062 10.66992188 6.40859375 11.37890625 6.6875 12.109375 C6.93886719 12.75874023 7.19023438 13.40810547 7.44921875 14.07714844 C8 16 8 16 8 20 C3.38 20 -1.24 20 -6 20 C-5.18498496 15.10990978 -4.12996891 11.22504371 -2.4375 6.625 C-2.20353516 5.98433594 -1.96957031 5.34367187 -1.72851562 4.68359375 C-1.15700381 3.1206839 -0.57915771 1.56009273 0 0 Z " fill="#107B32" transform="translate(1026,1360)"/>
<path d="M0 0 C3.18080224 2.62113029 4.25032955 5.63525626 5.6875 9.4375 C6.34298828 11.13712891 6.34298828 11.13712891 7.01171875 12.87109375 C8 16 8 16 8 20 C3.38 20 -1.24 20 -6 20 C-4.63125844 13.04223041 -2.5466871 6.61396893 0 0 Z " fill="#0F7A31" transform="translate(769,1360)"/>
<path d="M0 0 C0.99 0.33 1.98 0.66 3 1 C3.45375 1.928125 3.9075 2.85625 4.375 3.8125 C6.43115998 7.84573689 8.97713101 9.9885655 13 12 C14.53668865 12.22467831 16.07968054 12.40796805 17.625 12.5625 C18.44226562 12.64628906 19.25953125 12.73007813 20.1015625 12.81640625 C20.72804688 12.87699219 21.35453125 12.93757813 22 13 C22.33 13.99 22.66 14.98 23 16 C7.23457922 16.4801651 7.23457922 16.4801651 2 14 C-0.60227767 9.62817352 -0.17087946 4.95550445 0 0 Z " fill="#E4F0E8" transform="translate(1189,1399)"/>
<path d="M0 0 C0.99 0.33 1.98 0.66 3 1 C3.45375 1.928125 3.9075 2.85625 4.375 3.8125 C6.43115998 7.84573689 8.97713101 9.9885655 13 12 C14.53668865 12.22467831 16.07968054 12.40796805 17.625 12.5625 C18.44226563 12.64628906 19.25953125 12.73007813 20.1015625 12.81640625 C20.72804688 12.87699219 21.35453125 12.93757813 22 13 C22.33 13.99 22.66 14.98 23 16 C7.23457922 16.4801651 7.23457922 16.4801651 2 14 C-0.60227767 9.62817352 -0.17087946 4.95550445 0 0 Z " fill="#E4F0E8" transform="translate(598,1399)"/>
<path d="M0 0 C0.33 3.96 0.66 7.92 1 12 C0.34 12 -0.32 12 -1 12 C-1.5775 11.0925 -2.155 10.185 -2.75 9.25 C-6.08040378 4.43941676 -9.12338375 2.36321605 -14.875 1.25 C-15.90625 1.1675 -16.9375 1.085 -18 1 C-18 0.67 -18 0.34 -18 0 C-11.84464687 -3.07767657 -6.46835227 -1.29367045 0 0 Z " fill="#E4F0E8" transform="translate(1224,1350)"/>
<path d="M0 0 C0.33 3.96 0.66 7.92 1 12 C0.34 12 -0.32 12 -1 12 C-1.5775 11.0925 -2.155 10.185 -2.75 9.25 C-6.08040378 4.43941676 -9.12338375 2.36321605 -14.875 1.25 C-15.90625 1.1675 -16.9375 1.085 -18 1 C-18 0.67 -18 0.34 -18 0 C-11.84464687 -3.07767657 -6.46835227 -1.29367045 0 0 Z " fill="#E4F0E8" transform="translate(633,1350)"/>
</svg>
